<mxfile host="www.draw.io" modified="2019-11-11T19:42:45.224Z" agent="Mozilla/5.0 (Macintosh; Intel Mac OS X 10_15_1) AppleWebKit/605.1.15 (KHTML, like Gecko) Version/13.0.3 Safari/605.1.15" etag="zP4BtiXYgQ_LtpBQGGpR" version="12.2.3" type="github" pages="2">
  <diagram id="S-StJFoFpKq4Z-z_DmzN" name="current">
    <mxGraphModel dx="1426" dy="819" grid="1" gridSize="10" guides="1" tooltips="1" connect="1" arrows="1" fold="1" page="1" pageScale="1" pageWidth="1100" pageHeight="850" math="0" shadow="0">
      <root>
        <mxCell id="0"/>
        <mxCell id="1" parent="0"/>
        <mxCell id="OvhSR2caMaj9LtxyOtDU-20" style="edgeStyle=orthogonalEdgeStyle;rounded=0;orthogonalLoop=1;jettySize=auto;html=1;exitX=1;exitY=0.5;exitDx=0;exitDy=0;entryX=0;entryY=0.5;entryDx=0;entryDy=0;" parent="1" source="OvhSR2caMaj9LtxyOtDU-1" target="OvhSR2caMaj9LtxyOtDU-19" edge="1">
          <mxGeometry relative="1" as="geometry"/>
        </mxCell>
        <mxCell id="OvhSR2caMaj9LtxyOtDU-1" value="ACI" style="rounded=0;whiteSpace=wrap;html=1;" parent="1" vertex="1">
          <mxGeometry x="70" y="230" width="120" height="60" as="geometry"/>
        </mxCell>
        <mxCell id="OvhSR2caMaj9LtxyOtDU-18" style="edgeStyle=orthogonalEdgeStyle;rounded=0;orthogonalLoop=1;jettySize=auto;html=1;exitX=1;exitY=0.5;exitDx=0;exitDy=0;" parent="1" source="OvhSR2caMaj9LtxyOtDU-2" target="OvhSR2caMaj9LtxyOtDU-11" edge="1">
          <mxGeometry relative="1" as="geometry"/>
        </mxCell>
        <mxCell id="OvhSR2caMaj9LtxyOtDU-2" value="GCI" style="rounded=0;whiteSpace=wrap;html=1;" parent="1" vertex="1">
          <mxGeometry x="70" y="320" width="120" height="60" as="geometry"/>
        </mxCell>
        <mxCell id="OvhSR2caMaj9LtxyOtDU-10" style="edgeStyle=orthogonalEdgeStyle;rounded=0;orthogonalLoop=1;jettySize=auto;html=1;exitX=1;exitY=0.5;exitDx=0;exitDy=0;entryX=0;entryY=0.5;entryDx=0;entryDy=0;" parent="1" source="OvhSR2caMaj9LtxyOtDU-3" target="OvhSR2caMaj9LtxyOtDU-4" edge="1">
          <mxGeometry relative="1" as="geometry"/>
        </mxCell>
        <mxCell id="OvhSR2caMaj9LtxyOtDU-3" value="JIRA/Dosage Curation" style="rounded=0;whiteSpace=wrap;html=1;" parent="1" vertex="1">
          <mxGeometry x="70" y="455" width="120" height="80" as="geometry"/>
        </mxCell>
        <mxCell id="OvhSR2caMaj9LtxyOtDU-4" value="garde-manger" style="rounded=0;whiteSpace=wrap;html=1;labelPosition=center;verticalLabelPosition=top;align=center;verticalAlign=bottom;" parent="1" vertex="1">
          <mxGeometry x="240" y="420" width="290" height="150" as="geometry"/>
        </mxCell>
        <mxCell id="OvhSR2caMaj9LtxyOtDU-24" style="edgeStyle=orthogonalEdgeStyle;rounded=0;orthogonalLoop=1;jettySize=auto;html=1;exitX=1;exitY=0.5;exitDx=0;exitDy=0;entryX=0;entryY=0.5;entryDx=0;entryDy=0;" parent="1" source="OvhSR2caMaj9LtxyOtDU-5" target="OvhSR2caMaj9LtxyOtDU-6" edge="1">
          <mxGeometry relative="1" as="geometry"/>
        </mxCell>
        <mxCell id="OvhSR2caMaj9LtxyOtDU-25" style="edgeStyle=orthogonalEdgeStyle;rounded=0;orthogonalLoop=1;jettySize=auto;html=1;exitX=1;exitY=0.5;exitDx=0;exitDy=0;" parent="1" source="OvhSR2caMaj9LtxyOtDU-5" target="OvhSR2caMaj9LtxyOtDU-14" edge="1">
          <mxGeometry relative="1" as="geometry"/>
        </mxCell>
        <mxCell id="OvhSR2caMaj9LtxyOtDU-5" value="Query JIRA for new curations" style="rounded=0;whiteSpace=wrap;html=1;" parent="1" vertex="1">
          <mxGeometry x="250" y="460" width="120" height="60" as="geometry"/>
        </mxCell>
        <mxCell id="OvhSR2caMaj9LtxyOtDU-16" style="edgeStyle=orthogonalEdgeStyle;rounded=0;orthogonalLoop=1;jettySize=auto;html=1;exitX=1;exitY=0.5;exitDx=0;exitDy=0;entryX=0;entryY=0.5;entryDx=0;entryDy=0;" parent="1" source="OvhSR2caMaj9LtxyOtDU-6" target="OvhSR2caMaj9LtxyOtDU-15" edge="1">
          <mxGeometry relative="1" as="geometry"/>
        </mxCell>
        <mxCell id="OvhSR2caMaj9LtxyOtDU-6" value="Transform curations into SEPIO format" style="rounded=0;whiteSpace=wrap;html=1;" parent="1" vertex="1">
          <mxGeometry x="400" y="500" width="120" height="60" as="geometry"/>
        </mxCell>
        <mxCell id="OvhSR2caMaj9LtxyOtDU-29" style="edgeStyle=orthogonalEdgeStyle;rounded=0;orthogonalLoop=1;jettySize=auto;html=1;exitX=1;exitY=0.5;exitDx=0;exitDy=0;entryX=0;entryY=0.5;entryDx=0;entryDy=0;" parent="1" source="OvhSR2caMaj9LtxyOtDU-11" target="OvhSR2caMaj9LtxyOtDU-23" edge="1">
          <mxGeometry relative="1" as="geometry"/>
        </mxCell>
        <mxCell id="OvhSR2caMaj9LtxyOtDU-11" value="gene_validity" style="shape=hexagon;perimeter=hexagonPerimeter2;whiteSpace=wrap;html=1;" parent="1" vertex="1">
          <mxGeometry x="560" y="330" width="140" height="40" as="geometry"/>
        </mxCell>
        <mxCell id="OvhSR2caMaj9LtxyOtDU-30" style="edgeStyle=orthogonalEdgeStyle;rounded=0;orthogonalLoop=1;jettySize=auto;html=1;exitX=1;exitY=0.5;exitDx=0;exitDy=0;entryX=0;entryY=0.5;entryDx=0;entryDy=0;" parent="1" source="OvhSR2caMaj9LtxyOtDU-12" target="OvhSR2caMaj9LtxyOtDU-28" edge="1">
          <mxGeometry relative="1" as="geometry"/>
        </mxCell>
        <mxCell id="OvhSR2caMaj9LtxyOtDU-12" value="gene_dosage" style="shape=hexagon;perimeter=hexagonPerimeter2;whiteSpace=wrap;html=1;" parent="1" vertex="1">
          <mxGeometry x="560" y="440" width="140" height="40" as="geometry"/>
        </mxCell>
        <mxCell id="OvhSR2caMaj9LtxyOtDU-17" style="edgeStyle=orthogonalEdgeStyle;rounded=0;orthogonalLoop=1;jettySize=auto;html=1;exitX=1;exitY=0.5;exitDx=0;exitDy=0;entryX=0;entryY=0.5;entryDx=0;entryDy=0;" parent="1" source="OvhSR2caMaj9LtxyOtDU-14" target="OvhSR2caMaj9LtxyOtDU-12" edge="1">
          <mxGeometry relative="1" as="geometry"/>
        </mxCell>
        <mxCell id="OvhSR2caMaj9LtxyOtDU-14" value="Transform curations into legacy format" style="rounded=0;whiteSpace=wrap;html=1;" parent="1" vertex="1">
          <mxGeometry x="400" y="430" width="120" height="60" as="geometry"/>
        </mxCell>
        <mxCell id="OvhSR2caMaj9LtxyOtDU-15" value="gene_dosage_beta" style="shape=hexagon;perimeter=hexagonPerimeter2;whiteSpace=wrap;html=1;" parent="1" vertex="1">
          <mxGeometry x="560" y="510" width="140" height="40" as="geometry"/>
        </mxCell>
        <mxCell id="OvhSR2caMaj9LtxyOtDU-26" style="edgeStyle=orthogonalEdgeStyle;rounded=0;orthogonalLoop=1;jettySize=auto;html=1;exitX=1;exitY=0.5;exitDx=0;exitDy=0;entryX=0;entryY=0.5;entryDx=0;entryDy=0;" parent="1" source="OvhSR2caMaj9LtxyOtDU-19" target="OvhSR2caMaj9LtxyOtDU-23" edge="1">
          <mxGeometry relative="1" as="geometry"/>
        </mxCell>
        <mxCell id="OvhSR2caMaj9LtxyOtDU-43" style="edgeStyle=orthogonalEdgeStyle;rounded=0;orthogonalLoop=1;jettySize=auto;html=1;exitX=1;exitY=0.5;exitDx=0;exitDy=0;entryX=0;entryY=0.5;entryDx=0;entryDy=0;" parent="1" source="OvhSR2caMaj9LtxyOtDU-19" target="OvhSR2caMaj9LtxyOtDU-31" edge="1">
          <mxGeometry relative="1" as="geometry"/>
        </mxCell>
        <mxCell id="OvhSR2caMaj9LtxyOtDU-19" value="actionability" style="shape=hexagon;perimeter=hexagonPerimeter2;whiteSpace=wrap;html=1;" parent="1" vertex="1">
          <mxGeometry x="560" y="240" width="140" height="40" as="geometry"/>
        </mxCell>
        <mxCell id="OvhSR2caMaj9LtxyOtDU-22" style="edgeStyle=orthogonalEdgeStyle;rounded=0;orthogonalLoop=1;jettySize=auto;html=1;exitX=0.5;exitY=1;exitDx=0;exitDy=0;" parent="1" edge="1">
          <mxGeometry relative="1" as="geometry">
            <mxPoint x="830" y="310" as="sourcePoint"/>
            <mxPoint x="830" y="310" as="targetPoint"/>
          </mxGeometry>
        </mxCell>
        <mxCell id="OvhSR2caMaj9LtxyOtDU-35" style="edgeStyle=orthogonalEdgeStyle;rounded=0;orthogonalLoop=1;jettySize=auto;html=1;exitX=1;exitY=0.5;exitDx=0;exitDy=0;entryX=0;entryY=0.5;entryDx=0;entryDy=0;" parent="1" source="OvhSR2caMaj9LtxyOtDU-23" target="OvhSR2caMaj9LtxyOtDU-34" edge="1">
          <mxGeometry relative="1" as="geometry"/>
        </mxCell>
        <mxCell id="OvhSR2caMaj9LtxyOtDU-23" value="serveur" style="rounded=0;whiteSpace=wrap;html=1;labelPosition=center;verticalLabelPosition=top;align=center;verticalAlign=bottom;strokeColor=#FF0000;strokeWidth=2;" parent="1" vertex="1">
          <mxGeometry x="770" y="220" width="140" height="80" as="geometry"/>
        </mxCell>
        <mxCell id="OvhSR2caMaj9LtxyOtDU-28" value="Populate Neo4j with curations from gene dosage, actionability, and gene validity" style="rounded=0;whiteSpace=wrap;html=1;" parent="1" vertex="1">
          <mxGeometry x="780" y="230" width="120" height="60" as="geometry"/>
        </mxCell>
        <mxCell id="OvhSR2caMaj9LtxyOtDU-31" value="genegraph" style="rounded=0;whiteSpace=wrap;html=1;labelPosition=center;verticalLabelPosition=top;align=center;verticalAlign=bottom;" parent="1" vertex="1">
          <mxGeometry x="770" y="355" width="390" height="155" as="geometry"/>
        </mxCell>
        <mxCell id="OvhSR2caMaj9LtxyOtDU-48" style="edgeStyle=orthogonalEdgeStyle;rounded=0;orthogonalLoop=1;jettySize=auto;html=1;exitX=1;exitY=0.5;exitDx=0;exitDy=0;entryX=0;entryY=0.5;entryDx=0;entryDy=0;" parent="1" source="OvhSR2caMaj9LtxyOtDU-32" target="OvhSR2caMaj9LtxyOtDU-44" edge="1">
          <mxGeometry relative="1" as="geometry"/>
        </mxCell>
        <mxCell id="OvhSR2caMaj9LtxyOtDU-32" value="validate and store curations" style="rounded=0;whiteSpace=wrap;html=1;" parent="1" vertex="1">
          <mxGeometry x="780" y="370" width="120" height="60" as="geometry"/>
        </mxCell>
        <mxCell id="OvhSR2caMaj9LtxyOtDU-52" style="edgeStyle=orthogonalEdgeStyle;rounded=0;orthogonalLoop=1;jettySize=auto;html=1;exitX=1;exitY=0.5;exitDx=0;exitDy=0;entryX=0;entryY=0.5;entryDx=0;entryDy=0;" parent="1" source="OvhSR2caMaj9LtxyOtDU-34" target="OvhSR2caMaj9LtxyOtDU-40" edge="1">
          <mxGeometry relative="1" as="geometry"/>
        </mxCell>
        <mxCell id="OvhSR2caMaj9LtxyOtDU-34" value="Neo4j" style="shape=cylinder;whiteSpace=wrap;html=1;boundedLbl=1;backgroundOutline=1;strokeColor=#FF0000;strokeWidth=2;" parent="1" vertex="1">
          <mxGeometry x="1090" y="220" width="60" height="80" as="geometry"/>
        </mxCell>
        <mxCell id="OvhSR2caMaj9LtxyOtDU-36" style="edgeStyle=orthogonalEdgeStyle;rounded=0;orthogonalLoop=1;jettySize=auto;html=1;exitX=0.5;exitY=1;exitDx=0;exitDy=0;" parent="1" source="OvhSR2caMaj9LtxyOtDU-31" target="OvhSR2caMaj9LtxyOtDU-31" edge="1">
          <mxGeometry relative="1" as="geometry"/>
        </mxCell>
        <mxCell id="OvhSR2caMaj9LtxyOtDU-50" style="edgeStyle=orthogonalEdgeStyle;rounded=0;orthogonalLoop=1;jettySize=auto;html=1;exitX=1;exitY=0.5;exitDx=0;exitDy=0;entryX=0;entryY=0.5;entryDx=0;entryDy=0;" parent="1" source="OvhSR2caMaj9LtxyOtDU-37" target="OvhSR2caMaj9LtxyOtDU-40" edge="1">
          <mxGeometry relative="1" as="geometry"/>
        </mxCell>
        <mxCell id="OvhSR2caMaj9LtxyOtDU-37" value="publish GraphQL API" style="rounded=0;whiteSpace=wrap;html=1;" parent="1" vertex="1">
          <mxGeometry x="1030" y="370" width="120" height="60" as="geometry"/>
        </mxCell>
        <mxCell id="OvhSR2caMaj9LtxyOtDU-51" style="edgeStyle=orthogonalEdgeStyle;rounded=0;orthogonalLoop=1;jettySize=auto;html=1;exitX=0.5;exitY=0;exitDx=0;exitDy=0;entryX=0.5;entryY=1;entryDx=0;entryDy=0;" parent="1" source="OvhSR2caMaj9LtxyOtDU-40" target="OvhSR2caMaj9LtxyOtDU-41" edge="1">
          <mxGeometry relative="1" as="geometry"/>
        </mxCell>
        <mxCell id="OvhSR2caMaj9LtxyOtDU-40" value="clingen-knowledge" style="rounded=0;whiteSpace=wrap;html=1;labelPosition=center;verticalLabelPosition=top;align=center;verticalAlign=bottom;strokeColor=#FF0000;strokeWidth=2;" parent="1" vertex="1">
          <mxGeometry x="1230" y="280" width="140" height="80" as="geometry"/>
        </mxCell>
        <mxCell id="OvhSR2caMaj9LtxyOtDU-41" value="clingen-marketing" style="rounded=0;whiteSpace=wrap;html=1;labelPosition=center;verticalLabelPosition=top;align=center;verticalAlign=bottom;" parent="1" vertex="1">
          <mxGeometry x="1230" y="140" width="140" height="90" as="geometry"/>
        </mxCell>
        <mxCell id="OvhSR2caMaj9LtxyOtDU-49" style="edgeStyle=orthogonalEdgeStyle;rounded=0;orthogonalLoop=1;jettySize=auto;html=1;exitX=1;exitY=0.5;exitDx=0;exitDy=0;entryX=0;entryY=0.5;entryDx=0;entryDy=0;" parent="1" source="OvhSR2caMaj9LtxyOtDU-44" target="OvhSR2caMaj9LtxyOtDU-37" edge="1">
          <mxGeometry relative="1" as="geometry"/>
        </mxCell>
        <mxCell id="OvhSR2caMaj9LtxyOtDU-44" value="Jena TDB" style="shape=cylinder;whiteSpace=wrap;html=1;boundedLbl=1;backgroundOutline=1;" parent="1" vertex="1">
          <mxGeometry x="935" y="360" width="60" height="80" as="geometry"/>
        </mxCell>
        <mxCell id="OvhSR2caMaj9LtxyOtDU-53" value="Present ClinGen curated knowledge to end users" style="rounded=0;whiteSpace=wrap;html=1;" parent="1" vertex="1">
          <mxGeometry x="1240" y="290" width="120" height="60" as="geometry"/>
        </mxCell>
        <mxCell id="OvhSR2caMaj9LtxyOtDU-55" value="Present stakeholder maintained information about ClinGen" style="rounded=0;whiteSpace=wrap;html=1;" parent="1" vertex="1">
          <mxGeometry x="1240" y="155" width="120" height="60" as="geometry"/>
        </mxCell>
        <mxCell id="OvhSR2caMaj9LtxyOtDU-56" value="Read and persist external data&amp;nbsp;" style="rounded=0;whiteSpace=wrap;html=1;" parent="1" vertex="1">
          <mxGeometry x="780" y="440" width="120" height="60" as="geometry"/>
        </mxCell>
        <mxCell id="N_5rDdsWm_R3PwPtTVPM-2" style="edgeStyle=orthogonalEdgeStyle;rounded=0;orthogonalLoop=1;jettySize=auto;html=1;exitX=0.875;exitY=0.5;exitDx=0;exitDy=0;exitPerimeter=0;entryX=0;entryY=0.5;entryDx=0;entryDy=0;" parent="1" source="N_5rDdsWm_R3PwPtTVPM-1" target="OvhSR2caMaj9LtxyOtDU-56" edge="1">
          <mxGeometry relative="1" as="geometry"/>
        </mxCell>
        <mxCell id="N_5rDdsWm_R3PwPtTVPM-1" value="External HTTP/FTP resources&lt;br&gt;Mondo, OMIM, HGNC, etc..." style="ellipse;shape=cloud;whiteSpace=wrap;html=1;" parent="1" vertex="1">
          <mxGeometry x="460" y="590" width="280" height="140" as="geometry"/>
        </mxCell>
        <mxCell id="rFbI2fd_hvtWUB-rAwEX-1" value="service" style="rounded=0;whiteSpace=wrap;html=1;strokeColor=#000000;strokeWidth=1;fontColor=#000000;" vertex="1" parent="1">
          <mxGeometry x="80" y="40" width="120" height="30" as="geometry"/>
        </mxCell>
        <mxCell id="rFbI2fd_hvtWUB-rAwEX-2" value="deprecated service" style="rounded=0;whiteSpace=wrap;html=1;strokeColor=#FF0000;strokeWidth=2;fontColor=#000000;" vertex="1" parent="1">
          <mxGeometry x="220" y="40" width="120" height="30" as="geometry"/>
        </mxCell>
      </root>
    </mxGraphModel>
  </diagram>
  <diagram id="OdmoU22GVzztXL36z1wF" name="future">
    <mxGraphModel dx="1426" dy="819" grid="1" gridSize="10" guides="1" tooltips="1" connect="1" arrows="1" fold="1" page="1" pageScale="1" pageWidth="1100" pageHeight="850" math="0" shadow="0">
      <root>
        <mxCell id="cdoECuDf4LrfB-yfdqbq-0"/>
        <mxCell id="cdoECuDf4LrfB-yfdqbq-1" parent="cdoECuDf4LrfB-yfdqbq-0"/>
        <mxCell id="rfInNzI_nh11qiUnyh93-4" value="legend" style="rounded=0;whiteSpace=wrap;html=1;strokeColor=#000000;strokeWidth=1;labelPosition=center;verticalLabelPosition=top;align=center;verticalAlign=bottom;" vertex="1" parent="cdoECuDf4LrfB-yfdqbq-1">
          <mxGeometry x="20" y="26" width="860" height="60" as="geometry"/>
        </mxCell>
        <mxCell id="KIWpJbDcZLM8olN8HYGb-19" value="genegraph snapshot builder" style="rounded=0;whiteSpace=wrap;html=1;labelPosition=center;verticalLabelPosition=top;align=center;verticalAlign=bottom;strokeWidth=2;strokeColor=#CC6600;" vertex="1" parent="cdoECuDf4LrfB-yfdqbq-1">
          <mxGeometry x="1100" y="640" width="545" height="60" as="geometry"/>
        </mxCell>
        <mxCell id="KIWpJbDcZLM8olN8HYGb-10" value="OMIM" style="rounded=0;whiteSpace=wrap;html=1;labelPosition=center;verticalLabelPosition=top;align=center;verticalAlign=bottom;strokeWidth=2;strokeColor=#4C0099;" vertex="1" parent="cdoECuDf4LrfB-yfdqbq-1">
          <mxGeometry x="1900" y="25" width="140" height="77" as="geometry"/>
        </mxCell>
        <mxCell id="cdoECuDf4LrfB-yfdqbq-38" value="clingen-marketing" style="rounded=0;whiteSpace=wrap;html=1;labelPosition=center;verticalLabelPosition=top;align=center;verticalAlign=bottom;strokeColor=#009900;strokeWidth=2;" parent="cdoECuDf4LrfB-yfdqbq-1" vertex="1">
          <mxGeometry x="1900" y="127.5" width="140" height="190" as="geometry"/>
        </mxCell>
        <mxCell id="juG1C3BhILwDwn0djM05-50" value="clinvar-sepio-transformer" style="rounded=0;whiteSpace=wrap;html=1;labelPosition=center;verticalLabelPosition=top;align=center;verticalAlign=bottom;labelBorderColor=none;strokeColor=#FF0000;strokeWidth=2;" vertex="1" parent="cdoECuDf4LrfB-yfdqbq-1">
          <mxGeometry x="390" y="130" width="180" height="86" as="geometry"/>
        </mxCell>
        <mxCell id="juG1C3BhILwDwn0djM05-12" value="message validator" style="rounded=0;whiteSpace=wrap;html=1;labelPosition=center;verticalLabelPosition=top;align=center;verticalAlign=bottom;strokeWidth=2;strokeColor=#CC6600;" vertex="1" parent="cdoECuDf4LrfB-yfdqbq-1">
          <mxGeometry x="790" y="300" width="220" height="100" as="geometry"/>
        </mxCell>
        <mxCell id="cdoECuDf4LrfB-yfdqbq-37" value="website-clinicalgenome-search" style="rounded=0;whiteSpace=wrap;html=1;labelPosition=center;verticalLabelPosition=top;align=center;verticalAlign=bottom;strokeColor=#FF0000;strokeWidth=2;" parent="cdoECuDf4LrfB-yfdqbq-1" vertex="1">
          <mxGeometry x="1900" y="367.5" width="140" height="80" as="geometry"/>
        </mxCell>
        <mxCell id="cdoECuDf4LrfB-yfdqbq-2" style="edgeStyle=orthogonalEdgeStyle;rounded=0;orthogonalLoop=1;jettySize=auto;html=1;exitX=1;exitY=0.5;exitDx=0;exitDy=0;entryX=0;entryY=0.5;entryDx=0;entryDy=0;" parent="cdoECuDf4LrfB-yfdqbq-1" source="cdoECuDf4LrfB-yfdqbq-3" target="juG1C3BhILwDwn0djM05-6" edge="1">
          <mxGeometry relative="1" as="geometry">
            <mxPoint x="230" y="260" as="targetPoint"/>
          </mxGeometry>
        </mxCell>
        <mxCell id="cdoECuDf4LrfB-yfdqbq-3" value="ACI" style="rounded=0;whiteSpace=wrap;html=1;strokeColor=#4C0099;strokeWidth=2;" parent="cdoECuDf4LrfB-yfdqbq-1" vertex="1">
          <mxGeometry x="70" y="230" width="120" height="60" as="geometry"/>
        </mxCell>
        <mxCell id="cdoECuDf4LrfB-yfdqbq-4" style="edgeStyle=orthogonalEdgeStyle;rounded=0;orthogonalLoop=1;jettySize=auto;html=1;exitX=1;exitY=0.5;exitDx=0;exitDy=0;" parent="cdoECuDf4LrfB-yfdqbq-1" source="cdoECuDf4LrfB-yfdqbq-5" target="juG1C3BhILwDwn0djM05-5" edge="1">
          <mxGeometry relative="1" as="geometry">
            <mxPoint x="440" y="350" as="targetPoint"/>
          </mxGeometry>
        </mxCell>
        <mxCell id="cdoECuDf4LrfB-yfdqbq-5" value="GCI" style="rounded=0;whiteSpace=wrap;html=1;strokeColor=#4C0099;strokeWidth=2;" parent="cdoECuDf4LrfB-yfdqbq-1" vertex="1">
          <mxGeometry x="70" y="320" width="120" height="60" as="geometry"/>
        </mxCell>
        <mxCell id="cdoECuDf4LrfB-yfdqbq-7" value="JIRA/Dosage Curation" style="rounded=0;whiteSpace=wrap;html=1;labelPosition=center;verticalLabelPosition=top;align=center;verticalAlign=bottom;strokeColor=#009900;strokeWidth=2;" parent="cdoECuDf4LrfB-yfdqbq-1" vertex="1">
          <mxGeometry x="60" y="455" width="140" height="135" as="geometry"/>
        </mxCell>
        <mxCell id="cdoECuDf4LrfB-yfdqbq-8" value="garde-manger" style="rounded=0;whiteSpace=wrap;html=1;labelPosition=center;verticalLabelPosition=top;align=center;verticalAlign=bottom;strokeColor=#009900;strokeWidth=2;" parent="cdoECuDf4LrfB-yfdqbq-1" vertex="1">
          <mxGeometry x="420" y="455" width="140" height="80" as="geometry"/>
        </mxCell>
        <mxCell id="juG1C3BhILwDwn0djM05-56" style="edgeStyle=orthogonalEdgeStyle;rounded=0;orthogonalLoop=1;jettySize=auto;html=1;exitX=1;exitY=0.5;exitDx=0;exitDy=0;entryX=0;entryY=0.5;entryDx=0;entryDy=0;" edge="1" parent="cdoECuDf4LrfB-yfdqbq-1" source="cdoECuDf4LrfB-yfdqbq-13" target="juG1C3BhILwDwn0djM05-53">
          <mxGeometry relative="1" as="geometry"/>
        </mxCell>
        <mxCell id="cdoECuDf4LrfB-yfdqbq-13" value="Transform curations into SEPIO format" style="rounded=0;whiteSpace=wrap;html=1;" parent="cdoECuDf4LrfB-yfdqbq-1" vertex="1">
          <mxGeometry x="430" y="465" width="120" height="60" as="geometry"/>
        </mxCell>
        <mxCell id="cdoECuDf4LrfB-yfdqbq-28" value="genegraph" style="rounded=0;whiteSpace=wrap;html=1;labelPosition=center;verticalLabelPosition=top;align=center;verticalAlign=bottom;strokeColor=#009900;strokeWidth=2;" parent="cdoECuDf4LrfB-yfdqbq-1" vertex="1">
          <mxGeometry x="1470" y="310" width="340" height="180" as="geometry"/>
        </mxCell>
        <mxCell id="cdoECuDf4LrfB-yfdqbq-33" style="edgeStyle=orthogonalEdgeStyle;rounded=0;orthogonalLoop=1;jettySize=auto;html=1;exitX=0.5;exitY=1;exitDx=0;exitDy=0;" parent="cdoECuDf4LrfB-yfdqbq-1" source="cdoECuDf4LrfB-yfdqbq-28" target="cdoECuDf4LrfB-yfdqbq-28" edge="1">
          <mxGeometry relative="1" as="geometry"/>
        </mxCell>
        <mxCell id="juG1C3BhILwDwn0djM05-47" style="edgeStyle=orthogonalEdgeStyle;rounded=0;orthogonalLoop=1;jettySize=auto;html=1;exitX=1;exitY=0.5;exitDx=0;exitDy=0;entryX=0;entryY=0.5;entryDx=0;entryDy=0;" edge="1" parent="cdoECuDf4LrfB-yfdqbq-1" source="cdoECuDf4LrfB-yfdqbq-35" target="cdoECuDf4LrfB-yfdqbq-41">
          <mxGeometry relative="1" as="geometry"/>
        </mxCell>
        <mxCell id="juG1C3BhILwDwn0djM05-71" style="edgeStyle=orthogonalEdgeStyle;rounded=0;orthogonalLoop=1;jettySize=auto;html=1;exitX=1;exitY=0.5;exitDx=0;exitDy=0;entryX=0;entryY=0.5;entryDx=0;entryDy=0;" edge="1" parent="cdoECuDf4LrfB-yfdqbq-1" source="cdoECuDf4LrfB-yfdqbq-35" target="cdoECuDf4LrfB-yfdqbq-42">
          <mxGeometry relative="1" as="geometry"/>
        </mxCell>
        <mxCell id="KIWpJbDcZLM8olN8HYGb-12" style="edgeStyle=orthogonalEdgeStyle;rounded=0;orthogonalLoop=1;jettySize=auto;html=1;exitX=1;exitY=0.5;exitDx=0;exitDy=0;entryX=0;entryY=0.5;entryDx=0;entryDy=0;" edge="1" parent="cdoECuDf4LrfB-yfdqbq-1" source="cdoECuDf4LrfB-yfdqbq-35" target="KIWpJbDcZLM8olN8HYGb-11">
          <mxGeometry relative="1" as="geometry"/>
        </mxCell>
        <mxCell id="cdoECuDf4LrfB-yfdqbq-35" value="publish GraphQL API" style="rounded=0;whiteSpace=wrap;html=1;" parent="cdoECuDf4LrfB-yfdqbq-1" vertex="1">
          <mxGeometry x="1670" y="322.5" width="120" height="60" as="geometry"/>
        </mxCell>
        <mxCell id="juG1C3BhILwDwn0djM05-45" style="edgeStyle=orthogonalEdgeStyle;rounded=0;orthogonalLoop=1;jettySize=auto;html=1;exitX=1;exitY=0.5;exitDx=0;exitDy=0;entryX=0.16;entryY=0.55;entryDx=0;entryDy=0;entryPerimeter=0;" edge="1" parent="cdoECuDf4LrfB-yfdqbq-1" source="cdoECuDf4LrfB-yfdqbq-41" target="juG1C3BhILwDwn0djM05-42">
          <mxGeometry relative="1" as="geometry"/>
        </mxCell>
        <mxCell id="cdoECuDf4LrfB-yfdqbq-41" value="Present ClinGen curated knowledge to end users" style="rounded=0;whiteSpace=wrap;html=1;" parent="cdoECuDf4LrfB-yfdqbq-1" vertex="1">
          <mxGeometry x="1910" y="377.5" width="120" height="60" as="geometry"/>
        </mxCell>
        <mxCell id="juG1C3BhILwDwn0djM05-43" style="edgeStyle=orthogonalEdgeStyle;rounded=0;orthogonalLoop=1;jettySize=auto;html=1;exitX=1;exitY=0.5;exitDx=0;exitDy=0;entryX=0.16;entryY=0.55;entryDx=0;entryDy=0;entryPerimeter=0;" edge="1" parent="cdoECuDf4LrfB-yfdqbq-1" source="cdoECuDf4LrfB-yfdqbq-42" target="juG1C3BhILwDwn0djM05-42">
          <mxGeometry relative="1" as="geometry"/>
        </mxCell>
        <mxCell id="cdoECuDf4LrfB-yfdqbq-42" value="Present stakeholder maintained information about ClinGen (includes search bar for curated resources)" style="rounded=0;whiteSpace=wrap;html=1;" parent="cdoECuDf4LrfB-yfdqbq-1" vertex="1">
          <mxGeometry x="1910" y="210" width="120" height="95" as="geometry"/>
        </mxCell>
        <mxCell id="KIWpJbDcZLM8olN8HYGb-9" style="edgeStyle=orthogonalEdgeStyle;rounded=0;orthogonalLoop=1;jettySize=auto;html=1;exitX=0.875;exitY=0.5;exitDx=0;exitDy=0;exitPerimeter=0;" edge="1" parent="cdoECuDf4LrfB-yfdqbq-1" source="cdoECuDf4LrfB-yfdqbq-44" target="KIWpJbDcZLM8olN8HYGb-4">
          <mxGeometry relative="1" as="geometry"/>
        </mxCell>
        <mxCell id="cdoECuDf4LrfB-yfdqbq-44" value="External HTTP/FTP resources&lt;br&gt;Mondo, OMIM, HGNC, etc..." style="ellipse;shape=cloud;whiteSpace=wrap;html=1;" parent="cdoECuDf4LrfB-yfdqbq-1" vertex="1">
          <mxGeometry x="125" y="600" width="280" height="140" as="geometry"/>
        </mxCell>
        <mxCell id="juG1C3BhILwDwn0djM05-2" style="edgeStyle=orthogonalEdgeStyle;rounded=0;orthogonalLoop=1;jettySize=auto;html=1;exitX=1;exitY=0.5;exitDx=0;exitDy=0;entryX=0;entryY=0.5;entryDx=0;entryDy=0;" edge="1" parent="cdoECuDf4LrfB-yfdqbq-1" source="juG1C3BhILwDwn0djM05-0" target="juG1C3BhILwDwn0djM05-1">
          <mxGeometry relative="1" as="geometry"/>
        </mxCell>
        <mxCell id="juG1C3BhILwDwn0djM05-0" value="Push curation updates to Kafka" style="rounded=0;whiteSpace=wrap;html=1;" vertex="1" parent="cdoECuDf4LrfB-yfdqbq-1">
          <mxGeometry x="70" y="465" width="120" height="60" as="geometry"/>
        </mxCell>
        <mxCell id="juG1C3BhILwDwn0djM05-4" style="edgeStyle=orthogonalEdgeStyle;rounded=0;orthogonalLoop=1;jettySize=auto;html=1;exitX=1;exitY=0.5;exitDx=0;exitDy=0;" edge="1" parent="cdoECuDf4LrfB-yfdqbq-1" source="juG1C3BhILwDwn0djM05-1" target="cdoECuDf4LrfB-yfdqbq-13">
          <mxGeometry relative="1" as="geometry"/>
        </mxCell>
        <mxCell id="juG1C3BhILwDwn0djM05-1" value="gene_dosage_raw" style="shape=hexagon;perimeter=hexagonPerimeter2;whiteSpace=wrap;html=1;" vertex="1" parent="cdoECuDf4LrfB-yfdqbq-1">
          <mxGeometry x="240" y="472.5" width="140" height="45" as="geometry"/>
        </mxCell>
        <mxCell id="juG1C3BhILwDwn0djM05-61" style="edgeStyle=orthogonalEdgeStyle;rounded=0;orthogonalLoop=1;jettySize=auto;html=1;exitX=1;exitY=0.5;exitDx=0;exitDy=0;entryX=0;entryY=0.5;entryDx=0;entryDy=0;" edge="1" parent="cdoECuDf4LrfB-yfdqbq-1" source="juG1C3BhILwDwn0djM05-5" target="juG1C3BhILwDwn0djM05-18">
          <mxGeometry relative="1" as="geometry"/>
        </mxCell>
        <mxCell id="juG1C3BhILwDwn0djM05-5" value="gene_validity_sepio_in" style="shape=hexagon;perimeter=hexagonPerimeter2;whiteSpace=wrap;html=1;" vertex="1" parent="cdoECuDf4LrfB-yfdqbq-1">
          <mxGeometry x="240" y="327.5" width="150" height="45" as="geometry"/>
        </mxCell>
        <mxCell id="juG1C3BhILwDwn0djM05-62" style="edgeStyle=orthogonalEdgeStyle;rounded=0;orthogonalLoop=1;jettySize=auto;html=1;exitX=1;exitY=0.5;exitDx=0;exitDy=0;entryX=0;entryY=0.5;entryDx=0;entryDy=0;" edge="1" parent="cdoECuDf4LrfB-yfdqbq-1" source="juG1C3BhILwDwn0djM05-6" target="juG1C3BhILwDwn0djM05-18">
          <mxGeometry relative="1" as="geometry"/>
        </mxCell>
        <mxCell id="juG1C3BhILwDwn0djM05-6" value="actionability_sepio_in" style="shape=hexagon;perimeter=hexagonPerimeter2;whiteSpace=wrap;html=1;" vertex="1" parent="cdoECuDf4LrfB-yfdqbq-1">
          <mxGeometry x="240" y="237.5" width="150" height="45" as="geometry"/>
        </mxCell>
        <mxCell id="juG1C3BhILwDwn0djM05-39" style="edgeStyle=orthogonalEdgeStyle;rounded=0;orthogonalLoop=1;jettySize=auto;html=1;exitX=1;exitY=0.5;exitDx=0;exitDy=0;entryX=0;entryY=0.5;entryDx=0;entryDy=0;" edge="1" parent="cdoECuDf4LrfB-yfdqbq-1" source="juG1C3BhILwDwn0djM05-7" target="juG1C3BhILwDwn0djM05-37">
          <mxGeometry relative="1" as="geometry"/>
        </mxCell>
        <mxCell id="xaW7S8gp5_ifzKIgLM0Q-6" style="edgeStyle=orthogonalEdgeStyle;rounded=0;orthogonalLoop=1;jettySize=auto;html=1;exitX=1;exitY=0.5;exitDx=0;exitDy=0;entryX=0.25;entryY=0;entryDx=0;entryDy=0;" edge="1" parent="cdoECuDf4LrfB-yfdqbq-1" source="juG1C3BhILwDwn0djM05-7" target="KIWpJbDcZLM8olN8HYGb-22">
          <mxGeometry relative="1" as="geometry"/>
        </mxCell>
        <mxCell id="juG1C3BhILwDwn0djM05-7" value="actionability_sepio" style="shape=hexagon;perimeter=hexagonPerimeter2;whiteSpace=wrap;html=1;" vertex="1" parent="cdoECuDf4LrfB-yfdqbq-1">
          <mxGeometry x="1100" y="327.5" width="150" height="45" as="geometry"/>
        </mxCell>
        <mxCell id="juG1C3BhILwDwn0djM05-40" style="edgeStyle=orthogonalEdgeStyle;rounded=0;orthogonalLoop=1;jettySize=auto;html=1;exitX=1;exitY=0.5;exitDx=0;exitDy=0;entryX=0;entryY=0.5;entryDx=0;entryDy=0;" edge="1" parent="cdoECuDf4LrfB-yfdqbq-1" source="juG1C3BhILwDwn0djM05-8" target="juG1C3BhILwDwn0djM05-37">
          <mxGeometry relative="1" as="geometry"/>
        </mxCell>
        <mxCell id="xaW7S8gp5_ifzKIgLM0Q-5" style="edgeStyle=orthogonalEdgeStyle;rounded=0;orthogonalLoop=1;jettySize=auto;html=1;exitX=1;exitY=0.5;exitDx=0;exitDy=0;entryX=0.25;entryY=0;entryDx=0;entryDy=0;" edge="1" parent="cdoECuDf4LrfB-yfdqbq-1" source="juG1C3BhILwDwn0djM05-8" target="KIWpJbDcZLM8olN8HYGb-22">
          <mxGeometry relative="1" as="geometry"/>
        </mxCell>
        <mxCell id="juG1C3BhILwDwn0djM05-8" value="gene_validity_sepio" style="shape=hexagon;perimeter=hexagonPerimeter2;whiteSpace=wrap;html=1;" vertex="1" parent="cdoECuDf4LrfB-yfdqbq-1">
          <mxGeometry x="1100" y="387.5" width="150" height="45" as="geometry"/>
        </mxCell>
        <mxCell id="juG1C3BhILwDwn0djM05-41" style="edgeStyle=orthogonalEdgeStyle;rounded=0;orthogonalLoop=1;jettySize=auto;html=1;exitX=1;exitY=0.5;exitDx=0;exitDy=0;entryX=0;entryY=0.5;entryDx=0;entryDy=0;" edge="1" parent="cdoECuDf4LrfB-yfdqbq-1" source="juG1C3BhILwDwn0djM05-9" target="juG1C3BhILwDwn0djM05-37">
          <mxGeometry relative="1" as="geometry"/>
        </mxCell>
        <mxCell id="xaW7S8gp5_ifzKIgLM0Q-4" style="edgeStyle=orthogonalEdgeStyle;rounded=0;orthogonalLoop=1;jettySize=auto;html=1;exitX=1;exitY=0.5;exitDx=0;exitDy=0;entryX=0.25;entryY=0;entryDx=0;entryDy=0;" edge="1" parent="cdoECuDf4LrfB-yfdqbq-1" source="juG1C3BhILwDwn0djM05-9" target="KIWpJbDcZLM8olN8HYGb-22">
          <mxGeometry relative="1" as="geometry"/>
        </mxCell>
        <mxCell id="juG1C3BhILwDwn0djM05-9" value="gene_dosage_sepio" style="shape=hexagon;perimeter=hexagonPerimeter2;whiteSpace=wrap;html=1;" vertex="1" parent="cdoECuDf4LrfB-yfdqbq-1">
          <mxGeometry x="1100" y="442.5" width="150" height="45" as="geometry"/>
        </mxCell>
        <mxCell id="juG1C3BhILwDwn0djM05-75" style="edgeStyle=orthogonalEdgeStyle;rounded=0;orthogonalLoop=1;jettySize=auto;html=1;exitX=1;exitY=0.5;exitDx=0;exitDy=0;entryX=0;entryY=0.5;entryDx=0;entryDy=0;" edge="1" parent="cdoECuDf4LrfB-yfdqbq-1" source="juG1C3BhILwDwn0djM05-13" target="juG1C3BhILwDwn0djM05-29">
          <mxGeometry relative="1" as="geometry"/>
        </mxCell>
        <mxCell id="juG1C3BhILwDwn0djM05-13" value="actionability_validation_status" style="shape=hexagon;perimeter=hexagonPerimeter2;whiteSpace=wrap;html=1;" vertex="1" parent="cdoECuDf4LrfB-yfdqbq-1">
          <mxGeometry x="1100" y="118.5" width="200" height="45" as="geometry"/>
        </mxCell>
        <mxCell id="juG1C3BhILwDwn0djM05-76" style="edgeStyle=orthogonalEdgeStyle;rounded=0;orthogonalLoop=1;jettySize=auto;html=1;exitX=1;exitY=0.5;exitDx=0;exitDy=0;entryX=0;entryY=0.5;entryDx=0;entryDy=0;" edge="1" parent="cdoECuDf4LrfB-yfdqbq-1" source="juG1C3BhILwDwn0djM05-14" target="juG1C3BhILwDwn0djM05-29">
          <mxGeometry relative="1" as="geometry"/>
        </mxCell>
        <mxCell id="juG1C3BhILwDwn0djM05-14" value="gene_validity_validation_status" style="shape=hexagon;perimeter=hexagonPerimeter2;whiteSpace=wrap;html=1;" vertex="1" parent="cdoECuDf4LrfB-yfdqbq-1">
          <mxGeometry x="1100" y="171" width="200" height="45" as="geometry"/>
        </mxCell>
        <mxCell id="juG1C3BhILwDwn0djM05-77" style="edgeStyle=orthogonalEdgeStyle;rounded=0;orthogonalLoop=1;jettySize=auto;html=1;exitX=1;exitY=0.5;exitDx=0;exitDy=0;entryX=0;entryY=0.5;entryDx=0;entryDy=0;" edge="1" parent="cdoECuDf4LrfB-yfdqbq-1" source="juG1C3BhILwDwn0djM05-15" target="juG1C3BhILwDwn0djM05-29">
          <mxGeometry relative="1" as="geometry"/>
        </mxCell>
        <mxCell id="juG1C3BhILwDwn0djM05-15" value="gene_dosage_validation_status" style="shape=hexagon;perimeter=hexagonPerimeter2;whiteSpace=wrap;html=1;" vertex="1" parent="cdoECuDf4LrfB-yfdqbq-1">
          <mxGeometry x="1100" y="222.5" width="200" height="45" as="geometry"/>
        </mxCell>
        <mxCell id="juG1C3BhILwDwn0djM05-22" style="edgeStyle=orthogonalEdgeStyle;rounded=0;orthogonalLoop=1;jettySize=auto;html=1;exitX=1;exitY=0.5;exitDx=0;exitDy=0;entryX=0;entryY=0.5;entryDx=0;entryDy=0;" edge="1" parent="cdoECuDf4LrfB-yfdqbq-1" source="juG1C3BhILwDwn0djM05-18" target="juG1C3BhILwDwn0djM05-9">
          <mxGeometry relative="1" as="geometry">
            <mxPoint x="1040" y="338" as="sourcePoint"/>
          </mxGeometry>
        </mxCell>
        <mxCell id="juG1C3BhILwDwn0djM05-23" style="edgeStyle=orthogonalEdgeStyle;rounded=0;orthogonalLoop=1;jettySize=auto;html=1;exitX=1;exitY=0.5;exitDx=0;exitDy=0;entryX=0;entryY=0.5;entryDx=0;entryDy=0;" edge="1" parent="cdoECuDf4LrfB-yfdqbq-1" source="juG1C3BhILwDwn0djM05-18" target="juG1C3BhILwDwn0djM05-8">
          <mxGeometry relative="1" as="geometry">
            <mxPoint x="1040" y="338" as="sourcePoint"/>
          </mxGeometry>
        </mxCell>
        <mxCell id="juG1C3BhILwDwn0djM05-24" style="edgeStyle=orthogonalEdgeStyle;rounded=0;orthogonalLoop=1;jettySize=auto;html=1;exitX=1;exitY=0.5;exitDx=0;exitDy=0;entryX=0;entryY=0.5;entryDx=0;entryDy=0;" edge="1" parent="cdoECuDf4LrfB-yfdqbq-1" source="juG1C3BhILwDwn0djM05-18" target="juG1C3BhILwDwn0djM05-7">
          <mxGeometry relative="1" as="geometry">
            <mxPoint x="1040" y="338" as="sourcePoint"/>
          </mxGeometry>
        </mxCell>
        <mxCell id="juG1C3BhILwDwn0djM05-25" style="edgeStyle=orthogonalEdgeStyle;rounded=0;orthogonalLoop=1;jettySize=auto;html=1;exitX=1;exitY=0.5;exitDx=0;exitDy=0;entryX=0;entryY=0.5;entryDx=0;entryDy=0;" edge="1" parent="cdoECuDf4LrfB-yfdqbq-1" source="juG1C3BhILwDwn0djM05-18" target="juG1C3BhILwDwn0djM05-15">
          <mxGeometry relative="1" as="geometry">
            <mxPoint x="1040" y="338" as="sourcePoint"/>
          </mxGeometry>
        </mxCell>
        <mxCell id="juG1C3BhILwDwn0djM05-26" style="edgeStyle=orthogonalEdgeStyle;rounded=0;orthogonalLoop=1;jettySize=auto;html=1;exitX=1;exitY=0.5;exitDx=0;exitDy=0;entryX=0;entryY=0.5;entryDx=0;entryDy=0;" edge="1" parent="cdoECuDf4LrfB-yfdqbq-1" source="juG1C3BhILwDwn0djM05-18" target="juG1C3BhILwDwn0djM05-14">
          <mxGeometry relative="1" as="geometry">
            <mxPoint x="1040" y="338" as="sourcePoint"/>
          </mxGeometry>
        </mxCell>
        <mxCell id="juG1C3BhILwDwn0djM05-27" style="edgeStyle=orthogonalEdgeStyle;rounded=0;orthogonalLoop=1;jettySize=auto;html=1;exitX=1;exitY=0.5;exitDx=0;exitDy=0;entryX=0;entryY=0.5;entryDx=0;entryDy=0;" edge="1" parent="cdoECuDf4LrfB-yfdqbq-1" source="juG1C3BhILwDwn0djM05-18" target="juG1C3BhILwDwn0djM05-13">
          <mxGeometry relative="1" as="geometry">
            <mxPoint x="1040" y="338" as="sourcePoint"/>
          </mxGeometry>
        </mxCell>
        <mxCell id="juG1C3BhILwDwn0djM05-67" style="edgeStyle=orthogonalEdgeStyle;rounded=0;orthogonalLoop=1;jettySize=auto;html=1;exitX=1;exitY=0.5;exitDx=0;exitDy=0;entryX=0;entryY=0.5;entryDx=0;entryDy=0;" edge="1" parent="cdoECuDf4LrfB-yfdqbq-1" source="juG1C3BhILwDwn0djM05-18" target="juG1C3BhILwDwn0djM05-65">
          <mxGeometry relative="1" as="geometry"/>
        </mxCell>
        <mxCell id="juG1C3BhILwDwn0djM05-69" style="edgeStyle=orthogonalEdgeStyle;rounded=0;orthogonalLoop=1;jettySize=auto;html=1;exitX=1;exitY=0.5;exitDx=0;exitDy=0;entryX=0;entryY=0.5;entryDx=0;entryDy=0;" edge="1" parent="cdoECuDf4LrfB-yfdqbq-1" source="juG1C3BhILwDwn0djM05-18" target="juG1C3BhILwDwn0djM05-68">
          <mxGeometry relative="1" as="geometry"/>
        </mxCell>
        <mxCell id="juG1C3BhILwDwn0djM05-18" value="Test incoming messages against SHACL constraints, report validation status, publish valid messages to relevant topic" style="rounded=0;whiteSpace=wrap;html=1;" vertex="1" parent="cdoECuDf4LrfB-yfdqbq-1">
          <mxGeometry x="800" y="309" width="200" height="82" as="geometry"/>
        </mxCell>
        <mxCell id="juG1C3BhILwDwn0djM05-28" value="validation reporter" style="rounded=0;whiteSpace=wrap;html=1;labelPosition=center;verticalLabelPosition=top;align=center;verticalAlign=bottom;strokeColor=#FF0000;strokeWidth=2;" vertex="1" parent="cdoECuDf4LrfB-yfdqbq-1">
          <mxGeometry x="1340" y="153.5" width="140" height="83" as="geometry"/>
        </mxCell>
        <mxCell id="juG1C3BhILwDwn0djM05-36" style="edgeStyle=orthogonalEdgeStyle;rounded=0;orthogonalLoop=1;jettySize=auto;html=1;exitX=1;exitY=0.5;exitDx=0;exitDy=0;entryX=0.16;entryY=0.55;entryDx=0;entryDy=0;entryPerimeter=0;" edge="1" parent="cdoECuDf4LrfB-yfdqbq-1" source="juG1C3BhILwDwn0djM05-29" target="juG1C3BhILwDwn0djM05-31">
          <mxGeometry relative="1" as="geometry"/>
        </mxCell>
        <mxCell id="juG1C3BhILwDwn0djM05-29" value="Report validation status to external services (Slack, email, etc)" style="rounded=0;whiteSpace=wrap;html=1;" vertex="1" parent="cdoECuDf4LrfB-yfdqbq-1">
          <mxGeometry x="1350" y="163.5" width="120" height="60" as="geometry"/>
        </mxCell>
        <mxCell id="juG1C3BhILwDwn0djM05-31" value="data publishers" style="ellipse;shape=cloud;whiteSpace=wrap;html=1;" vertex="1" parent="cdoECuDf4LrfB-yfdqbq-1">
          <mxGeometry x="1505" y="150" width="150" height="80" as="geometry"/>
        </mxCell>
        <mxCell id="juG1C3BhILwDwn0djM05-38" style="edgeStyle=orthogonalEdgeStyle;rounded=0;orthogonalLoop=1;jettySize=auto;html=1;exitX=1;exitY=0.5;exitDx=0;exitDy=0;entryX=0;entryY=0.5;entryDx=0;entryDy=0;" edge="1" parent="cdoECuDf4LrfB-yfdqbq-1" source="juG1C3BhILwDwn0djM05-37">
          <mxGeometry relative="1" as="geometry">
            <mxPoint x="1565" y="352.5" as="targetPoint"/>
          </mxGeometry>
        </mxCell>
        <mxCell id="s8OwM91qPLyqEFh6o9PG-7" style="edgeStyle=orthogonalEdgeStyle;rounded=0;orthogonalLoop=1;jettySize=auto;html=1;exitX=1;exitY=0.5;exitDx=0;exitDy=0;entryX=0;entryY=0.5;entryDx=0;entryDy=0;" edge="1" parent="cdoECuDf4LrfB-yfdqbq-1" source="juG1C3BhILwDwn0djM05-37" target="cdoECuDf4LrfB-yfdqbq-35">
          <mxGeometry relative="1" as="geometry"/>
        </mxCell>
        <mxCell id="s8OwM91qPLyqEFh6o9PG-8" style="edgeStyle=orthogonalEdgeStyle;rounded=0;orthogonalLoop=1;jettySize=auto;html=1;exitX=1;exitY=0.5;exitDx=0;exitDy=0;entryX=0;entryY=0.5;entryDx=0;entryDy=0;" edge="1" parent="cdoECuDf4LrfB-yfdqbq-1" source="juG1C3BhILwDwn0djM05-37" target="KIWpJbDcZLM8olN8HYGb-13">
          <mxGeometry relative="1" as="geometry"/>
        </mxCell>
        <mxCell id="juG1C3BhILwDwn0djM05-37" value="read updates from validated topics" style="rounded=0;whiteSpace=wrap;html=1;" vertex="1" parent="cdoECuDf4LrfB-yfdqbq-1">
          <mxGeometry x="1490" y="322.5" width="110" height="60" as="geometry"/>
        </mxCell>
        <mxCell id="juG1C3BhILwDwn0djM05-42" value="ClinGen user community" style="ellipse;shape=cloud;whiteSpace=wrap;html=1;" vertex="1" parent="cdoECuDf4LrfB-yfdqbq-1">
          <mxGeometry x="2070" y="297.5" width="120" height="80" as="geometry"/>
        </mxCell>
        <mxCell id="juG1C3BhILwDwn0djM05-63" style="edgeStyle=orthogonalEdgeStyle;rounded=0;orthogonalLoop=1;jettySize=auto;html=1;exitX=1;exitY=0.5;exitDx=0;exitDy=0;entryX=0;entryY=0.5;entryDx=0;entryDy=0;" edge="1" parent="cdoECuDf4LrfB-yfdqbq-1" source="juG1C3BhILwDwn0djM05-48" target="juG1C3BhILwDwn0djM05-49">
          <mxGeometry relative="1" as="geometry"/>
        </mxCell>
        <mxCell id="juG1C3BhILwDwn0djM05-48" value="ClinVar Transformer" style="rounded=0;whiteSpace=wrap;html=1;strokeColor=#4C0099;strokeWidth=2;" vertex="1" parent="cdoECuDf4LrfB-yfdqbq-1">
          <mxGeometry x="70" y="144" width="120" height="60" as="geometry"/>
        </mxCell>
        <mxCell id="juG1C3BhILwDwn0djM05-52" style="edgeStyle=orthogonalEdgeStyle;rounded=0;orthogonalLoop=1;jettySize=auto;html=1;exitX=1;exitY=0.5;exitDx=0;exitDy=0;entryX=0;entryY=0.5;entryDx=0;entryDy=0;" edge="1" parent="cdoECuDf4LrfB-yfdqbq-1" source="juG1C3BhILwDwn0djM05-49" target="juG1C3BhILwDwn0djM05-51">
          <mxGeometry relative="1" as="geometry"/>
        </mxCell>
        <mxCell id="juG1C3BhILwDwn0djM05-49" value="clinvar_raw" style="shape=hexagon;perimeter=hexagonPerimeter2;whiteSpace=wrap;html=1;" vertex="1" parent="cdoECuDf4LrfB-yfdqbq-1">
          <mxGeometry x="240" y="154.5" width="120" height="39" as="geometry"/>
        </mxCell>
        <mxCell id="juG1C3BhILwDwn0djM05-58" style="edgeStyle=orthogonalEdgeStyle;rounded=0;orthogonalLoop=1;jettySize=auto;html=1;exitX=1;exitY=0.5;exitDx=0;exitDy=0;entryX=0;entryY=0.5;entryDx=0;entryDy=0;" edge="1" parent="cdoECuDf4LrfB-yfdqbq-1" source="juG1C3BhILwDwn0djM05-51" target="juG1C3BhILwDwn0djM05-57">
          <mxGeometry relative="1" as="geometry"/>
        </mxCell>
        <mxCell id="juG1C3BhILwDwn0djM05-51" value="Transform raw ClinVar messages into SEPIO format" style="rounded=0;whiteSpace=wrap;html=1;" vertex="1" parent="cdoECuDf4LrfB-yfdqbq-1">
          <mxGeometry x="400" y="144.5" width="160" height="59" as="geometry"/>
        </mxCell>
        <mxCell id="juG1C3BhILwDwn0djM05-60" style="edgeStyle=orthogonalEdgeStyle;rounded=0;orthogonalLoop=1;jettySize=auto;html=1;exitX=1;exitY=0.5;exitDx=0;exitDy=0;entryX=0;entryY=0.5;entryDx=0;entryDy=0;" edge="1" parent="cdoECuDf4LrfB-yfdqbq-1" source="juG1C3BhILwDwn0djM05-53" target="juG1C3BhILwDwn0djM05-18">
          <mxGeometry relative="1" as="geometry"/>
        </mxCell>
        <mxCell id="juG1C3BhILwDwn0djM05-53" value="gene_dosage_sepio_in" style="shape=hexagon;perimeter=hexagonPerimeter2;whiteSpace=wrap;html=1;" vertex="1" parent="cdoECuDf4LrfB-yfdqbq-1">
          <mxGeometry x="590" y="472.5" width="150" height="45" as="geometry"/>
        </mxCell>
        <mxCell id="juG1C3BhILwDwn0djM05-59" style="edgeStyle=orthogonalEdgeStyle;rounded=0;orthogonalLoop=1;jettySize=auto;html=1;exitX=1;exitY=0.5;exitDx=0;exitDy=0;entryX=0;entryY=0.5;entryDx=0;entryDy=0;" edge="1" parent="cdoECuDf4LrfB-yfdqbq-1" source="juG1C3BhILwDwn0djM05-57" target="juG1C3BhILwDwn0djM05-18">
          <mxGeometry relative="1" as="geometry"/>
        </mxCell>
        <mxCell id="juG1C3BhILwDwn0djM05-57" value="clinvar_sepio_in" style="shape=hexagon;perimeter=hexagonPerimeter2;whiteSpace=wrap;html=1;" vertex="1" parent="cdoECuDf4LrfB-yfdqbq-1">
          <mxGeometry x="590" y="156" width="150" height="36" as="geometry"/>
        </mxCell>
        <mxCell id="juG1C3BhILwDwn0djM05-72" style="edgeStyle=orthogonalEdgeStyle;rounded=0;orthogonalLoop=1;jettySize=auto;html=1;exitX=1;exitY=0.5;exitDx=0;exitDy=0;entryX=0;entryY=0.5;entryDx=0;entryDy=0;" edge="1" parent="cdoECuDf4LrfB-yfdqbq-1" source="juG1C3BhILwDwn0djM05-65" target="juG1C3BhILwDwn0djM05-29">
          <mxGeometry relative="1" as="geometry"/>
        </mxCell>
        <mxCell id="juG1C3BhILwDwn0djM05-65" value="clinvar_validation_status" style="shape=hexagon;perimeter=hexagonPerimeter2;whiteSpace=wrap;html=1;" vertex="1" parent="cdoECuDf4LrfB-yfdqbq-1">
          <mxGeometry x="1100" y="66" width="200" height="45" as="geometry"/>
        </mxCell>
        <mxCell id="juG1C3BhILwDwn0djM05-70" style="edgeStyle=orthogonalEdgeStyle;rounded=0;orthogonalLoop=1;jettySize=auto;html=1;exitX=1;exitY=0.5;exitDx=0;exitDy=0;entryX=0;entryY=0.5;entryDx=0;entryDy=0;" edge="1" parent="cdoECuDf4LrfB-yfdqbq-1" source="juG1C3BhILwDwn0djM05-68" target="juG1C3BhILwDwn0djM05-37">
          <mxGeometry relative="1" as="geometry"/>
        </mxCell>
        <mxCell id="xaW7S8gp5_ifzKIgLM0Q-3" style="edgeStyle=orthogonalEdgeStyle;rounded=0;orthogonalLoop=1;jettySize=auto;html=1;exitX=1;exitY=0.5;exitDx=0;exitDy=0;entryX=0.25;entryY=0;entryDx=0;entryDy=0;" edge="1" parent="cdoECuDf4LrfB-yfdqbq-1" source="juG1C3BhILwDwn0djM05-68" target="KIWpJbDcZLM8olN8HYGb-22">
          <mxGeometry relative="1" as="geometry"/>
        </mxCell>
        <mxCell id="juG1C3BhILwDwn0djM05-68" value="clinvar_sepio" style="shape=hexagon;perimeter=hexagonPerimeter2;whiteSpace=wrap;html=1;" vertex="1" parent="cdoECuDf4LrfB-yfdqbq-1">
          <mxGeometry x="1100" y="497.5" width="150" height="45" as="geometry"/>
        </mxCell>
        <mxCell id="KIWpJbDcZLM8olN8HYGb-3" value="migrator" style="rounded=0;whiteSpace=wrap;html=1;labelPosition=center;verticalLabelPosition=top;align=center;verticalAlign=bottom;strokeColor=#CC6600;strokeWidth=2;" vertex="1" parent="cdoECuDf4LrfB-yfdqbq-1">
          <mxGeometry x="425" y="630" width="140" height="80" as="geometry"/>
        </mxCell>
        <mxCell id="KIWpJbDcZLM8olN8HYGb-18" style="edgeStyle=orthogonalEdgeStyle;rounded=0;orthogonalLoop=1;jettySize=auto;html=1;exitX=1;exitY=0.5;exitDx=0;exitDy=0;entryX=0;entryY=0.5;entryDx=0;entryDy=0;" edge="1" parent="cdoECuDf4LrfB-yfdqbq-1" source="KIWpJbDcZLM8olN8HYGb-4" target="KIWpJbDcZLM8olN8HYGb-17">
          <mxGeometry relative="1" as="geometry"/>
        </mxCell>
        <mxCell id="KIWpJbDcZLM8olN8HYGb-4" value="Read base data for genegraph and store in GCS" style="rounded=0;whiteSpace=wrap;html=1;" vertex="1" parent="cdoECuDf4LrfB-yfdqbq-1">
          <mxGeometry x="435" y="640" width="120" height="60" as="geometry"/>
        </mxCell>
        <mxCell id="KIWpJbDcZLM8olN8HYGb-25" style="edgeStyle=orthogonalEdgeStyle;rounded=0;orthogonalLoop=1;jettySize=auto;html=1;exitX=0.5;exitY=0;exitDx=0;exitDy=0;exitPerimeter=0;entryX=0.5;entryY=1;entryDx=0;entryDy=0;" edge="1" parent="cdoECuDf4LrfB-yfdqbq-1" source="KIWpJbDcZLM8olN8HYGb-7" target="KIWpJbDcZLM8olN8HYGb-4">
          <mxGeometry relative="1" as="geometry"/>
        </mxCell>
        <mxCell id="KIWpJbDcZLM8olN8HYGb-7" value="Administrator" style="shape=umlActor;verticalLabelPosition=bottom;labelBackgroundColor=#ffffff;verticalAlign=top;html=1;outlineConnect=0;" vertex="1" parent="cdoECuDf4LrfB-yfdqbq-1">
          <mxGeometry x="480" y="760" width="30" height="60" as="geometry"/>
        </mxCell>
        <mxCell id="KIWpJbDcZLM8olN8HYGb-11" value="Retrieve list of conditions about which ClinGen has information" style="rounded=0;whiteSpace=wrap;html=1;" vertex="1" parent="cdoECuDf4LrfB-yfdqbq-1">
          <mxGeometry x="1910" y="33.5" width="120" height="60" as="geometry"/>
        </mxCell>
        <mxCell id="KIWpJbDcZLM8olN8HYGb-16" style="edgeStyle=orthogonalEdgeStyle;rounded=0;orthogonalLoop=1;jettySize=auto;html=1;exitX=1;exitY=0.5;exitDx=0;exitDy=0;entryX=0.16;entryY=0.55;entryDx=0;entryDy=0;entryPerimeter=0;" edge="1" parent="cdoECuDf4LrfB-yfdqbq-1" source="KIWpJbDcZLM8olN8HYGb-13" target="KIWpJbDcZLM8olN8HYGb-15">
          <mxGeometry relative="1" as="geometry"/>
        </mxCell>
        <mxCell id="KIWpJbDcZLM8olN8HYGb-13" value="Present data model documentation" style="rounded=0;whiteSpace=wrap;html=1;" vertex="1" parent="cdoECuDf4LrfB-yfdqbq-1">
          <mxGeometry x="1670" y="415" width="120" height="60" as="geometry"/>
        </mxCell>
        <mxCell id="KIWpJbDcZLM8olN8HYGb-15" value="ClinGen data model users" style="ellipse;shape=cloud;whiteSpace=wrap;html=1;" vertex="1" parent="cdoECuDf4LrfB-yfdqbq-1">
          <mxGeometry x="1855" y="455" width="190" height="80" as="geometry"/>
        </mxCell>
        <mxCell id="KIWpJbDcZLM8olN8HYGb-21" style="edgeStyle=orthogonalEdgeStyle;rounded=0;orthogonalLoop=1;jettySize=auto;html=1;exitX=1;exitY=0.5;exitDx=0;exitDy=0;entryX=0;entryY=0.5;entryDx=0;entryDy=0;" edge="1" parent="cdoECuDf4LrfB-yfdqbq-1" target="KIWpJbDcZLM8olN8HYGb-20">
          <mxGeometry relative="1" as="geometry">
            <mxPoint x="756" y="670" as="sourcePoint"/>
          </mxGeometry>
        </mxCell>
        <mxCell id="z1EFgU2z1KYDP_XagCZl-5" style="edgeStyle=orthogonalEdgeStyle;rounded=0;orthogonalLoop=1;jettySize=auto;html=1;exitX=1;exitY=0.5;exitDx=0;exitDy=0;entryX=0;entryY=0.5;entryDx=0;entryDy=0;" edge="1" parent="cdoECuDf4LrfB-yfdqbq-1" source="KIWpJbDcZLM8olN8HYGb-17" target="juG1C3BhILwDwn0djM05-18">
          <mxGeometry relative="1" as="geometry"/>
        </mxCell>
        <mxCell id="KIWpJbDcZLM8olN8HYGb-17" value="GCS Base Data Bucket" style="shape=cylinder;whiteSpace=wrap;html=1;boundedLbl=1;backgroundOutline=1;" vertex="1" parent="cdoECuDf4LrfB-yfdqbq-1">
          <mxGeometry x="605" y="630" width="140" height="80" as="geometry"/>
        </mxCell>
        <mxCell id="KIWpJbDcZLM8olN8HYGb-26" style="edgeStyle=orthogonalEdgeStyle;rounded=0;orthogonalLoop=1;jettySize=auto;html=1;exitX=1;exitY=0.5;exitDx=0;exitDy=0;entryX=0;entryY=0.5;entryDx=0;entryDy=0;" edge="1" parent="cdoECuDf4LrfB-yfdqbq-1" source="KIWpJbDcZLM8olN8HYGb-20" target="KIWpJbDcZLM8olN8HYGb-22">
          <mxGeometry relative="1" as="geometry"/>
        </mxCell>
        <mxCell id="KIWpJbDcZLM8olN8HYGb-20" value="Read base data" style="rounded=0;whiteSpace=wrap;html=1;" vertex="1" parent="cdoECuDf4LrfB-yfdqbq-1">
          <mxGeometry x="1110" y="650" width="100" height="40" as="geometry"/>
        </mxCell>
        <mxCell id="z1EFgU2z1KYDP_XagCZl-2" style="edgeStyle=orthogonalEdgeStyle;rounded=0;orthogonalLoop=1;jettySize=auto;html=1;exitX=1;exitY=0.5;exitDx=0;exitDy=0;entryX=0;entryY=0.5;entryDx=0;entryDy=0;" edge="1" parent="cdoECuDf4LrfB-yfdqbq-1" source="KIWpJbDcZLM8olN8HYGb-22" target="z1EFgU2z1KYDP_XagCZl-1">
          <mxGeometry relative="1" as="geometry"/>
        </mxCell>
        <mxCell id="KIWpJbDcZLM8olN8HYGb-22" value="intake topic messages up to current state" style="rounded=0;whiteSpace=wrap;html=1;" vertex="1" parent="cdoECuDf4LrfB-yfdqbq-1">
          <mxGeometry x="1240" y="650" width="120" height="40" as="geometry"/>
        </mxCell>
        <mxCell id="xaW7S8gp5_ifzKIgLM0Q-7" style="edgeStyle=orthogonalEdgeStyle;rounded=0;orthogonalLoop=1;jettySize=auto;html=1;exitX=1;exitY=0.5;exitDx=0;exitDy=0;entryX=0;entryY=0.5;entryDx=0;entryDy=0;" edge="1" parent="cdoECuDf4LrfB-yfdqbq-1" source="KIWpJbDcZLM8olN8HYGb-27" target="KIWpJbDcZLM8olN8HYGb-3">
          <mxGeometry relative="1" as="geometry"/>
        </mxCell>
        <mxCell id="KIWpJbDcZLM8olN8HYGb-27" value="ClinGen data model GitHub" style="shape=cylinder;whiteSpace=wrap;html=1;boundedLbl=1;backgroundOutline=1;" vertex="1" parent="cdoECuDf4LrfB-yfdqbq-1">
          <mxGeometry x="180" y="750" width="190" height="80" as="geometry"/>
        </mxCell>
        <mxCell id="z1EFgU2z1KYDP_XagCZl-12" style="edgeStyle=orthogonalEdgeStyle;rounded=0;orthogonalLoop=1;jettySize=auto;html=1;exitX=1;exitY=0.5;exitDx=0;exitDy=0;entryX=0.761;entryY=0.5;entryDx=0;entryDy=0;entryPerimeter=0;" edge="1" parent="cdoECuDf4LrfB-yfdqbq-1" source="z1EFgU2z1KYDP_XagCZl-1" target="KIWpJbDcZLM8olN8HYGb-19">
          <mxGeometry relative="1" as="geometry"/>
        </mxCell>
        <mxCell id="z1EFgU2z1KYDP_XagCZl-1" value="validate messages given base state" style="rounded=0;whiteSpace=wrap;html=1;" vertex="1" parent="cdoECuDf4LrfB-yfdqbq-1">
          <mxGeometry x="1380" y="650" width="120" height="40" as="geometry"/>
        </mxCell>
        <mxCell id="s8OwM91qPLyqEFh6o9PG-10" style="edgeStyle=orthogonalEdgeStyle;rounded=0;orthogonalLoop=1;jettySize=auto;html=1;exitX=0.5;exitY=0;exitDx=0;exitDy=0;entryX=0.5;entryY=1;entryDx=0;entryDy=0;" edge="1" parent="cdoECuDf4LrfB-yfdqbq-1" source="z1EFgU2z1KYDP_XagCZl-3" target="xaW7S8gp5_ifzKIgLM0Q-0">
          <mxGeometry relative="1" as="geometry"/>
        </mxCell>
        <mxCell id="z1EFgU2z1KYDP_XagCZl-3" value="GCS genegraph snapshot bucket&amp;nbsp;" style="shape=cylinder;whiteSpace=wrap;html=1;boundedLbl=1;backgroundOutline=1;" vertex="1" parent="cdoECuDf4LrfB-yfdqbq-1">
          <mxGeometry x="1440" y="520" width="210" height="80" as="geometry"/>
        </mxCell>
        <mxCell id="s8OwM91qPLyqEFh6o9PG-9" style="edgeStyle=orthogonalEdgeStyle;rounded=0;orthogonalLoop=1;jettySize=auto;html=1;exitX=0.25;exitY=0;exitDx=0;exitDy=0;entryX=0.5;entryY=1;entryDx=0;entryDy=0;" edge="1" parent="cdoECuDf4LrfB-yfdqbq-1" source="z1EFgU2z1KYDP_XagCZl-10" target="z1EFgU2z1KYDP_XagCZl-3">
          <mxGeometry relative="1" as="geometry"/>
        </mxCell>
        <mxCell id="z1EFgU2z1KYDP_XagCZl-10" value="publish snapshot with validation errors and warnings" style="rounded=0;whiteSpace=wrap;html=1;" vertex="1" parent="cdoECuDf4LrfB-yfdqbq-1">
          <mxGeometry x="1515" y="650" width="120" height="40" as="geometry"/>
        </mxCell>
        <mxCell id="s8OwM91qPLyqEFh6o9PG-5" style="edgeStyle=orthogonalEdgeStyle;rounded=0;orthogonalLoop=1;jettySize=auto;html=1;exitX=0.5;exitY=0;exitDx=0;exitDy=0;entryX=0.5;entryY=1;entryDx=0;entryDy=0;" edge="1" parent="cdoECuDf4LrfB-yfdqbq-1" source="xaW7S8gp5_ifzKIgLM0Q-0" target="juG1C3BhILwDwn0djM05-37">
          <mxGeometry relative="1" as="geometry"/>
        </mxCell>
        <mxCell id="xaW7S8gp5_ifzKIgLM0Q-0" value="Initialize new instances from snapshot" style="rounded=0;whiteSpace=wrap;html=1;" vertex="1" parent="cdoECuDf4LrfB-yfdqbq-1">
          <mxGeometry x="1485" y="415" width="120" height="60" as="geometry"/>
        </mxCell>
        <mxCell id="s8OwM91qPLyqEFh6o9PG-3" value="MariaDB" style="shape=cylinder;whiteSpace=wrap;html=1;boundedLbl=1;backgroundOutline=1;" vertex="1" parent="cdoECuDf4LrfB-yfdqbq-1">
          <mxGeometry x="1940" y="138.5" width="60" height="59" as="geometry"/>
        </mxCell>
        <mxCell id="s8OwM91qPLyqEFh6o9PG-4" value="DB" style="shape=cylinder;whiteSpace=wrap;html=1;boundedLbl=1;backgroundOutline=1;" vertex="1" parent="cdoECuDf4LrfB-yfdqbq-1">
          <mxGeometry x="82.5" y="535" width="95" height="40" as="geometry"/>
        </mxCell>
        <mxCell id="rfInNzI_nh11qiUnyh93-0" value="external service" style="rounded=0;whiteSpace=wrap;html=1;strokeColor=#4C0099;strokeWidth=2;" vertex="1" parent="cdoECuDf4LrfB-yfdqbq-1">
          <mxGeometry x="40" y="40" width="140" height="30" as="geometry"/>
        </mxCell>
        <mxCell id="rfInNzI_nh11qiUnyh93-1" value="existing service" style="rounded=0;whiteSpace=wrap;html=1;strokeColor=#009900;strokeWidth=2;" vertex="1" parent="cdoECuDf4LrfB-yfdqbq-1">
          <mxGeometry x="190" y="40" width="140" height="30" as="geometry"/>
        </mxCell>
        <mxCell id="rfInNzI_nh11qiUnyh93-2" value="new service refactored from existing service" style="rounded=0;whiteSpace=wrap;html=1;strokeColor=#CC6600;strokeWidth=2;" vertex="1" parent="cdoECuDf4LrfB-yfdqbq-1">
          <mxGeometry x="340" y="40" width="140" height="30" as="geometry"/>
        </mxCell>
        <mxCell id="rfInNzI_nh11qiUnyh93-3" value="new service" style="rounded=0;whiteSpace=wrap;html=1;strokeColor=#FF0000;strokeWidth=2;" vertex="1" parent="cdoECuDf4LrfB-yfdqbq-1">
          <mxGeometry x="490" y="40" width="140" height="30" as="geometry"/>
        </mxCell>
        <mxCell id="rfInNzI_nh11qiUnyh93-8" value="persistent storage" style="shape=cylinder;whiteSpace=wrap;html=1;boundedLbl=1;backgroundOutline=1;strokeColor=#000000;strokeWidth=1;fontColor=#000000;" vertex="1" parent="cdoECuDf4LrfB-yfdqbq-1">
          <mxGeometry x="650" y="32" width="80" height="46" as="geometry"/>
        </mxCell>
        <mxCell id="rfInNzI_nh11qiUnyh93-9" value="Kafka topic" style="shape=hexagon;perimeter=hexagonPerimeter2;whiteSpace=wrap;html=1;strokeColor=#000000;strokeWidth=1;fontColor=#000000;" vertex="1" parent="cdoECuDf4LrfB-yfdqbq-1">
          <mxGeometry x="750" y="38" width="120" height="32" as="geometry"/>
        </mxCell>
      </root>
    </mxGraphModel>
  </diagram>
</mxfile>
